<svg version="1.1" xmlns="http://www.w3.org/2000/svg" viewBox="0 0 1495 547.5" width="1495" height="547.5" filter="invert(93%) hue-rotate(180deg)">
  <!-- svg-source:excalidraw -->
  
  <defs>
    <style>
      @font-face {
        font-family: "Virgil";
        src: url("https://excalidraw.com/Virgil.woff2");
      }
      @font-face {
        font-family: "Cascadia";
        src: url("https://excalidraw.com/Cascadia.woff2");
      }
    </style>
  </defs>
  <rect x="0" y="0" width="1495" height="547.5" fill="#ffffff"></rect><g stroke-linecap="round" transform="translate(9.999999999999943 193) rotate(0 77.7142857142857 40)"><path d="M48.81 3.27 C59.09 0.54, 74.35 -1.12, 86.47 -0.52 C98.59 0.07, 111.69 3.07, 121.54 6.82 C131.39 10.57, 139.96 16.63, 145.57 21.96 C151.17 27.29, 154.83 32.89, 155.14 38.81 C155.46 44.74, 152.98 51.88, 147.48 57.51 C141.98 63.14, 132.24 68.82, 122.16 72.61 C112.08 76.4, 99.01 79.33, 86.98 80.27 C74.95 81.2, 61.16 80.54, 49.95 78.23 C38.75 75.92, 27.57 71.12, 19.75 66.42 C11.94 61.72, 6.15 55.9, 3.07 50.03 C-0.01 44.15, -1.34 37.3, 1.28 31.17 C3.89 25.04, 9.49 18.3, 18.78 13.23 C28.07 8.16, 49.31 2.73, 57.02 0.76 C64.73 -1.22, 64.64 0.59, 65.04 1.38 M96.12 2.44 C107.29 3.49, 119.62 8.01, 128.73 11.79 C137.84 15.57, 146.28 19.65, 150.79 25.13 C155.29 30.62, 157.22 38.19, 155.76 44.7 C154.3 51.22, 149.33 58.95, 142.02 64.22 C134.7 69.49, 122.68 73.46, 111.87 76.32 C101.06 79.18, 88.87 81.33, 77.17 81.39 C65.47 81.44, 52.13 80, 41.68 76.66 C31.24 73.32, 21.29 66.99, 14.5 61.36 C7.72 55.73, 2.63 48.77, 0.99 42.88 C-0.65 36.99, 0.1 31.59, 4.65 26.02 C9.2 20.44, 19.14 13.5, 28.31 9.44 C37.49 5.38, 48.02 2.8, 59.7 1.66 C71.38 0.51, 92.04 2.41, 98.38 2.57 C104.72 2.73, 98.49 2.42, 97.75 2.63" stroke="#000000" stroke-width="1" fill="none"></path></g><g transform="translate(54.809523809522034 213.90476190476215) rotate(0 34.15238095238095 15.523809523809518)"><text x="0" y="22.04761904761903" font-family="Virgil, Segoe UI Emoji" font-size="24.83809523809526px" fill="#000000" text-anchor="start" style="white-space: pre;" direction="ltr">Client</text></g><g stroke-linecap="round" transform="translate(470 41) rotate(0 66 213)"><path d="M0.38 -1.88 C37.59 -0.25, 78.22 2.04, 131.99 1.04 M0.4 0.31 C37.79 1.06, 74.54 1.92, 132.11 0.95 M131.45 -0.08 C135.14 139.11, 133.96 278.28, 131.53 425.28 M131.61 0.46 C131.25 166.41, 131.88 333.24, 132.01 426.22 M131.13 427.37 C96.18 425.2, 57.82 427.42, -2 425.77 M131.72 425.54 C104.43 424.97, 77.06 426.12, -0.3 426.98 M-0.86 426.74 C-1.69 284.2, -0.96 140.63, -0.33 0.37 M-0.12 425.84 C0.51 289.26, -0.13 152.62, 0.03 0.24" stroke="#000000" stroke-width="1" fill="none"></path></g><g transform="translate(489.5 201) rotate(0 43.5 25)"><text x="43.5" y="18" font-family="Virgil, Segoe UI Emoji" font-size="20px" fill="#000000" text-anchor="middle" style="white-space: pre;" direction="ltr">API</text><text x="43.5" y="43" font-family="Virgil, Segoe UI Emoji" font-size="20px" fill="#000000" text-anchor="middle" style="white-space: pre;" direction="ltr">Gateway</text></g><g transform="translate(484 272.9593023255814) rotate(0 50.5 22.020348837209298)"><text x="50.50000000000001" y="10.680232558139524" font-family="Virgil, Segoe UI Emoji" font-size="11.744186046511619px" fill="#000000" text-anchor="middle" style="white-space: pre;" direction="ltr">(Inter-connected </text><text x="50.50000000000001" y="25.360465116279048" font-family="Virgil, Segoe UI Emoji" font-size="11.744186046511619px" fill="#000000" text-anchor="middle" style="white-space: pre;" direction="ltr">with </text><text x="50.50000000000001" y="40.040697674418574" font-family="Virgil, Segoe UI Emoji" font-size="11.744186046511619px" fill="#000000" text-anchor="middle" style="white-space: pre;" direction="ltr">Frontend)</text></g><g stroke-linecap="round"><g transform="translate(179.1040311928025 231.6867230894332) rotate(0 136.06902732492773 0.24929323755881683)"><path d="M0.09 -0.83 C45.79 -0.98, 227.97 -0.06, 273.46 0.07 M-1.32 1.34 C44.25 1.24, 226.15 1.2, 272.28 1.09" stroke="#000000" stroke-width="1" fill="none"></path></g><g transform="translate(179.1040311928025 231.6867230894332) rotate(0 136.06902732492773 0.24929323755881683)"><path d="M242.71 10.65 C249.06 7.43, 255.57 5.54, 272.43 2.48 M243.57 10.94 C252.44 8.2, 260.19 6.06, 272.62 1.87" stroke="#000000" stroke-width="1" fill="none"></path></g><g transform="translate(179.1040311928025 231.6867230894332) rotate(0 136.06902732492773 0.24929323755881683)"><path d="M242.69 -9.87 C249.2 -8.21, 255.71 -5.22, 272.43 2.48 M243.54 -9.59 C252.4 -6.48, 260.16 -2.78, 272.62 1.87" stroke="#000000" stroke-width="1" fill="none"></path></g></g><g transform="translate(187 199.53825136612022) rotate(0 120.5 8.23087431693989)"><text x="120.5" y="11.461748633879782" font-family="Virgil, Segoe UI Emoji" font-size="13.169398907103824px" fill="#000000" text-anchor="middle" style="white-space: pre;" direction="ltr">User Interaction(Login/Register/Like)</text></g><g transform="translate(201 252.4281767955801) rotate(0 105.5 7.28591160220995)"><text x="105.5" y="10.57182320441989" font-family="Virgil, Segoe UI Emoji" font-size="11.657458563535913px" fill="#000000" text-anchor="middle" style="white-space: pre;" direction="ltr">Content Service (Ingest/getContent)</text></g><g stroke-linecap="round" transform="translate(829 34) rotate(0 147.5 63.5)"><path d="M203.26 4.19 C219.45 6.02, 235.26 11.55, 248.11 16.97 C260.95 22.39, 272.56 29.61, 280.34 36.72 C288.11 43.83, 293.26 52.1, 294.76 59.65 C296.26 67.19, 294.68 74.66, 289.34 81.99 C284 89.32, 273.88 97.5, 262.71 103.63 C251.55 109.77, 237.57 115.13, 222.35 118.78 C207.14 122.43, 188.77 124.27, 171.41 125.53 C154.06 126.8, 135.69 127.7, 118.24 126.37 C100.8 125.04, 81.84 121.73, 66.75 117.55 C51.66 113.37, 37.97 107.74, 27.68 101.29 C17.4 94.84, 9.38 86.33, 5.02 78.85 C0.66 71.37, -0.58 63.9, 1.51 56.43 C3.6 48.95, 9.23 40.88, 17.54 34.01 C25.85 27.13, 38.17 20.19, 51.35 15.17 C64.53 10.15, 79.95 6.34, 96.6 3.87 C113.25 1.41, 130.62 -0.27, 151.26 0.37 C171.9 1, 206.79 5.32, 220.45 7.67 C234.1 10.01, 234.45 13.43, 233.18 14.43 M125.02 -0.07 C141.36 -2.15, 161.68 0.9, 179.23 2.59 C196.78 4.27, 215.51 5.79, 230.33 10.05 C245.15 14.31, 258.17 22.05, 268.14 28.13 C278.11 34.21, 285.91 39.38, 290.14 46.53 C294.37 53.68, 295.64 63.07, 293.52 71.04 C291.39 79.02, 285.78 87.8, 277.39 94.38 C269.01 100.95, 256.73 105.48, 243.22 110.49 C229.71 115.49, 213.09 121.57, 196.31 124.41 C179.54 127.25, 160.38 127.9, 142.56 127.52 C124.74 127.15, 105.63 125.31, 89.39 122.16 C73.16 119.01, 57.72 113.73, 45.13 108.62 C32.54 103.51, 21.22 98.54, 13.85 91.5 C6.47 84.45, 1.84 74.3, 0.88 66.35 C-0.08 58.39, 2.58 50.84, 8.09 43.78 C13.6 36.72, 23.21 29.83, 33.92 23.97 C44.64 18.12, 57.06 12.71, 72.38 8.65 C87.7 4.6, 117.25 0.66, 125.82 -0.34 C134.38 -1.35, 123.57 1.31, 123.77 2.62" stroke="#000000" stroke-width="1" fill="none"></path></g><g transform="translate(856 81) rotate(0 122 12.5)"><text x="122" y="18" font-family="Virgil, Segoe UI Emoji" font-size="20px" fill="#000000" text-anchor="middle" style="white-space: pre;" direction="ltr">User Interaction Service</text></g><g stroke-linecap="round" transform="translate(851 374) rotate(0 150.5 56.5)"><path d="M109.7 2.68 C124.72 0.29, 144.35 -0.43, 161.61 0.06 C178.87 0.54, 197.4 2.87, 213.26 5.6 C229.12 8.33, 244.72 12.11, 256.8 16.44 C268.87 20.78, 278.57 25.78, 285.72 31.58 C292.87 37.39, 297.94 44.61, 299.7 51.28 C301.46 57.94, 300.35 65.48, 296.26 71.58 C292.18 77.68, 284.96 82.9, 275.2 87.9 C265.44 92.9, 251.85 97.65, 237.71 101.56 C223.57 105.46, 206.69 109.6, 190.36 111.32 C174.02 113.05, 156.78 112.58, 139.68 111.92 C122.59 111.27, 103.61 109.82, 87.8 107.42 C71.99 105.02, 57.07 101.96, 44.83 97.53 C32.59 93.1, 21.83 86.6, 14.38 80.83 C6.93 75.06, 1.59 69.15, 0.14 62.9 C-1.31 56.65, 1.13 49.85, 5.67 43.33 C10.22 36.81, 17.86 29.17, 27.41 23.76 C36.95 18.35, 47.75 14.56, 62.93 10.87 C78.11 7.18, 107.91 3.14, 118.49 1.64 C129.07 0.14, 126.02 1.11, 126.39 1.87 M196.87 1.79 C213.15 2.82, 229.84 8.49, 243.12 12.64 C256.41 16.79, 267.63 21.64, 276.59 26.7 C285.55 31.76, 293.13 36.8, 296.88 42.98 C300.64 49.16, 301.07 57.32, 299.11 63.77 C297.14 70.21, 292.97 75.92, 285.09 81.67 C277.21 87.42, 264.65 93.84, 251.83 98.26 C239.01 102.67, 224.02 105.94, 208.19 108.16 C192.36 110.39, 174.12 111.24, 156.86 111.63 C139.61 112.02, 120.94 112, 104.65 110.48 C88.36 108.97, 72.6 106.56, 59.13 102.54 C45.66 98.53, 33.03 92.22, 23.84 86.39 C14.66 80.57, 7.66 73.95, 4.03 67.6 C0.4 61.25, -0.2 54.52, 2.04 48.31 C4.28 42.09, 9.63 36.1, 17.46 30.31 C25.29 24.53, 36.55 17.76, 49 13.62 C61.46 9.47, 76.24 7.57, 92.17 5.46 C108.11 3.34, 127.45 1.65, 144.63 0.94 C161.81 0.22, 186.93 0.65, 195.25 1.18 C203.57 1.71, 195.26 2.88, 194.54 4.13" stroke="#000000" stroke-width="1" fill="none"></path></g><g transform="translate(925.5 413) rotate(0 77.5 12.5)"><text x="77.5" y="18" font-family="Virgil, Segoe UI Emoji" font-size="20px" fill="#000000" text-anchor="middle" style="white-space: pre;" direction="ltr">Content Service</text></g><g stroke-linecap="round"><g transform="translate(622.0000000000002 260.15774795873904) rotate(0 101.55149040897601 -64.20964473571236)"><path d="M0.33 0.54 C33.89 -20.99, 167.97 -107.56, 201.75 -128.96 M-0.95 -0.23 C32.95 -21.64, 170.14 -106.86, 204.06 -127.89" stroke="#000000" stroke-width="1" fill="none"></path></g><g transform="translate(622.0000000000002 260.15774795873904) rotate(0 101.55149040897601 -64.20964473571236)"><path d="M186.41 -105.59 C190.18 -111.4, 198.24 -121.44, 204.22 -127.36 M184.65 -103.83 C191.88 -111.57, 197.49 -120.33, 204.28 -128.53" stroke="#000000" stroke-width="1" fill="none"></path></g><g transform="translate(622.0000000000002 260.15774795873904) rotate(0 101.55149040897601 -64.20964473571236)"><path d="M175.59 -123.03 C183 -123.04, 194.66 -127.27, 204.22 -127.36 M173.83 -121.27 C184.49 -123.51, 193.55 -126.73, 204.28 -128.53" stroke="#000000" stroke-width="1" fill="none"></path></g></g><g stroke-linecap="round"><g transform="translate(623 294.3752349956078) rotate(0 109.02012343720025 58.413859561829554)"><path d="M0.73 -1.04 C37.31 18.78, 181.87 98.3, 218.38 117.87 M-0.34 1.02 C36.15 20.58, 180.63 96.69, 217.29 116.06" stroke="#000000" stroke-width="1" fill="none"></path></g><g transform="translate(623 294.3752349956078) rotate(0 109.02012343720025 58.413859561829554)"><path d="M185.83 111.53 C194.71 114.54, 198.43 115.2, 219 117.83 M188.35 112.74 C196.43 113.28, 207.26 114.67, 217.35 116.22" stroke="#000000" stroke-width="1" fill="none"></path></g><g transform="translate(623 294.3752349956078) rotate(0 109.02012343720025 58.413859561829554)"><path d="M195.41 93.38 C202.14 100.22, 203.87 104.66, 219 117.83 M197.92 94.59 C202.95 100.97, 210.66 108.27, 217.35 116.22" stroke="#000000" stroke-width="1" fill="none"></path></g></g><g stroke-linecap="round"><g transform="translate(1137.8671200591807 92.19703996454012) rotate(0 74.98775779879111 -0.3868682549215521)"><path d="M1.18 0.43 C26.06 0.29, 125.17 -0.85, 149.63 -1.2 M0.34 -0.39 C25.07 -0.33, 123.96 0.16, 148.94 0.08" stroke="#000000" stroke-width="1" fill="none"></path></g><g transform="translate(1137.8671200591807 92.19703996454012) rotate(0 74.98775779879111 -0.3868682549215521)"><path d="M121.45 11.13 C129.31 4.71, 137.88 2.18, 148.12 1.64 M120.09 11.2 C128.42 7.42, 137.14 5.04, 148.86 -0.11" stroke="#000000" stroke-width="1" fill="none"></path></g><g transform="translate(1137.8671200591807 92.19703996454012) rotate(0 74.98775779879111 -0.3868682549215521)"><path d="M121.48 -9.39 C129.26 -9.02, 137.82 -4.75, 148.12 1.64 M120.12 -9.32 C128.4 -7.23, 137.11 -3.75, 148.86 -0.11" stroke="#000000" stroke-width="1" fill="none"></path></g></g><g stroke-linecap="round" transform="translate(1312 10) rotate(0 86 94.5)"><path d="M-0.76 -0.62 C58.69 -1.58, 111.87 -2.23, 170.36 0.88 M0.15 0.96 C51.5 1.93, 104.65 2.1, 171.69 0.05 M171.68 1.26 C173.82 45.08, 173.14 90.78, 170.87 187.25 M172.65 -0.52 C172.22 49, 172.77 96.04, 171.14 188.34 M170.88 188.56 C123.67 189.24, 77.95 192.02, -1.78 190.52 M172.86 189.7 C127 191.17, 82.09 189.71, 0.45 188.52 M1.59 189.27 C-3.26 136.03, 0.24 86.92, 0.69 -0.07 M0.52 188.94 C-0.72 146.52, -1.48 105.86, -0.85 -0.52" stroke="#000000" stroke-width="1" fill="none"></path></g><g transform="translate(1323.8666666666666 69.19512195121953) rotate(0 73.5 27)"><text x="73.5" y="13" font-family="Virgil, Segoe UI Emoji" font-size="14.347967479674782px" fill="#000000" text-anchor="middle" style="white-space: pre;" direction="ltr">MongoDB Database</text><text x="73.5" y="31" font-family="Virgil, Segoe UI Emoji" font-size="14.347967479674782px" fill="#000000" text-anchor="middle" style="white-space: pre;" direction="ltr">with Users Collection</text><text x="73.5" y="49" font-family="Virgil, Segoe UI Emoji" font-size="14.347967479674782px" fill="#000000" text-anchor="middle" style="white-space: pre;" direction="ltr">and Likes collection</text></g><g stroke-linecap="round" transform="translate(1313 348.5) rotate(0 86 94.5)"><path d="M-0.03 1.79 C62.42 2.57, 128.01 3.06, 173.28 0.34 M-0.64 -0.32 C64.04 -1.1, 128.19 0.03, 172.59 -0.18 M170.42 -1.85 C170.16 54.27, 172.28 106.43, 172.13 190.32 M172.34 -0.93 C172.89 75.49, 173.56 150.26, 171.53 188.69 M172.45 190.68 C115.94 189.69, 62.77 187.78, -1.85 188.66 M172.88 189.99 C117.49 190.3, 62.55 189.23, 0.97 188.01 M-0.52 187.44 C0.29 144.91, 2.67 103.33, -1.23 1.13 M-0.1 188.25 C-2.16 150.79, -0.62 112, 0.02 -0.21" stroke="#000000" stroke-width="1" fill="none"></path></g><g transform="translate(1328.3666666666663 407.69512195121956) rotate(0 70 27)"><text x="70" y="13" font-family="Virgil, Segoe UI Emoji" font-size="14.347967479674782px" fill="#000000" text-anchor="middle" style="white-space: pre;" direction="ltr">MongoDB Database</text><text x="70" y="31" font-family="Virgil, Segoe UI Emoji" font-size="14.347967479674782px" fill="#000000" text-anchor="middle" style="white-space: pre;" direction="ltr">with Content </text><text x="70" y="49" font-family="Virgil, Segoe UI Emoji" font-size="14.347967479674782px" fill="#000000" text-anchor="middle" style="white-space: pre;" direction="ltr">Information</text></g><g stroke-linecap="round"><g transform="translate(1167 433) rotate(0 64.67196655087173 0.158690627204777)"><path d="M-0.73 -0.94 C20.95 -1.08, 108.64 -0.6, 130.08 -0.26 M1.08 1.17 C22.7 1.17, 108.17 1.45, 129.69 1.14" stroke="#000000" stroke-width="1" fill="none"></path></g><g transform="translate(1167 433) rotate(0 64.67196655087173 0.158690627204777)"><path d="M99.97 13.32 C109.51 6.76, 120.19 3.71, 130.15 1.06 M100.79 12.35 C111.28 8.86, 121.92 4.48, 129.55 0.23" stroke="#000000" stroke-width="1" fill="none"></path></g><g transform="translate(1167 433) rotate(0 64.67196655087173 0.158690627204777)"><path d="M99.88 -7.21 C109.54 -7.61, 120.25 -4.5, 130.15 1.06 M100.7 -8.18 C111.35 -4.23, 122.02 -1.18, 129.55 0.23" stroke="#000000" stroke-width="1" fill="none"></path></g></g><g stroke-linecap="round"><g transform="translate(913 369) rotate(0 3.1333092290907416 -97.90720170744696)"><path d="M-0.6 0.82 C0.54 -31.58, 5.68 -162.07, 6.86 -194.68 M1.29 0.2 C2.35 -32.55, 5.58 -164.36, 6.37 -196.63" stroke="#000000" stroke-width="1" fill="none"></path></g><g transform="translate(913 369) rotate(0 3.1333092290907416 -97.90720170744696)"><path d="M17.3 -166.76 C13.65 -175.96, 10.47 -187.17, 5.11 -196.13 M15.27 -167.97 C13.72 -175.88, 11.17 -184.29, 6.99 -196.13" stroke="#000000" stroke-width="1" fill="none"></path></g><g transform="translate(913 369) rotate(0 3.1333092290907416 -97.90720170744696)"><path d="M-3.22 -167.26 C-0.67 -176.21, 2.34 -187.27, 5.11 -196.13 M-5.25 -168.47 C-0.87 -176.35, 2.51 -184.61, 6.99 -196.13" stroke="#000000" stroke-width="1" fill="none"></path></g></g><g transform="translate(747.0999999999999 221.91156462585036) rotate(0 79 36.54421768707482)"><text x="78.99999999999997" y="13.272108843537413" font-family="Virgil, Segoe UI Emoji" font-size="14.617687074829933px" fill="#000000" text-anchor="middle" style="white-space: pre;" direction="ltr">Dependency and </text><text x="78.99999999999997" y="31.544217687074827" font-family="Virgil, Segoe UI Emoji" font-size="14.617687074829933px" fill="#000000" text-anchor="middle" style="white-space: pre;" direction="ltr">communication </text><text x="78.99999999999997" y="49.816326530612244" font-family="Virgil, Segoe UI Emoji" font-size="14.617687074829933px" fill="#000000" text-anchor="middle" style="white-space: pre;" direction="ltr">for validation of </text><text x="78.99999999999997" y="68.08843537414965" font-family="Virgil, Segoe UI Emoji" font-size="14.617687074829933px" fill="#000000" text-anchor="middle" style="white-space: pre;" direction="ltr">user and getting likes</text></g><g stroke-linecap="round"><g transform="translate(992 166) rotate(0 -3.937570128217317 96.91234082080423)"><path d="M-1.04 0.33 C-2.17 32.34, -6.51 161.12, -7.35 193.24 M0.61 -0.55 C-0.65 32.12, -7.32 161.97, -8.49 194.37" stroke="#000000" stroke-width="1" fill="none"></path></g><g transform="translate(992 166) rotate(0 -3.937570128217317 96.91234082080423)"><path d="M-16.94 165.16 C-16.23 174.5, -14.3 179.09, -9.2 194.17 M-16.7 166.64 C-14.66 173.66, -12.39 180.4, -8.45 194.5" stroke="#000000" stroke-width="1" fill="none"></path></g><g transform="translate(992 166) rotate(0 -3.937570128217317 96.91234082080423)"><path d="M3.56 166.08 C-0.87 175.01, -4.06 179.37, -9.2 194.17 M3.8 167.55 C0.37 174.48, -2.84 180.98, -8.45 194.5" stroke="#000000" stroke-width="1" fill="none"></path></g></g><g transform="translate(996.48 224) rotate(0 82.4765625 34.5)"><text x="82.47656250000001" y="12.25" font-family="Virgil, Segoe UI Emoji" font-size="13.800000000000008px" fill="#000000" text-anchor="middle" style="white-space: pre;" direction="ltr">Dependency and </text><text x="82.47656250000001" y="29.5" font-family="Virgil, Segoe UI Emoji" font-size="13.800000000000008px" fill="#000000" text-anchor="middle" style="white-space: pre;" direction="ltr">communication </text><text x="82.47656250000001" y="46.75" font-family="Virgil, Segoe UI Emoji" font-size="13.800000000000008px" fill="#000000" text-anchor="middle" style="white-space: pre;" direction="ltr">for validation of titles </text><text x="82.47656250000001" y="64" font-family="Virgil, Segoe UI Emoji" font-size="13.800000000000008px" fill="#000000" text-anchor="middle" style="white-space: pre;" direction="ltr">before updating likes</text></g></svg>